<svg width="70" height="30" viewBox="0 0 70 30" fill="none" xmlns="http://www.w3.org/2000/svg">
<rect x="1" y="1" width="68" height="28" rx="14" fill="white"/>
<rect x="1" y="1" width="68" height="28" rx="14" stroke="#3A3E41" stroke-width="2"/>
<path d="M11.1523 22C10.6315 22 10.3711 21.7559 10.3711 21.2676V8.72852C10.3711 8.24023 10.6315 7.99609 11.1523 7.99609H14.4727C16.9727 7.99609 18.6589 8.30534 19.5312 8.92383C20.4102 9.53581 20.8496 10.4798 20.8496 11.7559C20.8496 12.6478 20.5208 13.3379 19.8633 13.8262C19.2122 14.3145 18.5807 14.5977 17.9688 14.6758V14.7051C18.5612 14.7441 19.2578 15.0436 20.0586 15.6035C20.8594 16.1634 21.2598 16.9544 21.2598 17.9766C21.2598 19.1745 20.7715 20.1445 19.7949 20.8867C18.8184 21.6289 17.207 22 14.9609 22H11.1523ZM13.2227 19.6172H14.6484C16.0286 19.6172 16.9661 19.4967 17.4609 19.2559C17.9622 19.015 18.2129 18.5267 18.2129 17.791C18.2129 17.1009 17.9232 16.6257 17.3438 16.3652C16.7708 16.0983 15.8724 15.9648 14.6484 15.9648H13.2227V19.6172ZM13.2227 13.6602H14.502C15.3418 13.6602 16.1263 13.5137 16.8555 13.2207C17.5911 12.9277 17.959 12.472 17.959 11.8535C17.959 11.3717 17.7539 11.0072 17.3438 10.7598C16.9401 10.5059 15.9928 10.3789 14.502 10.3789H13.2227V13.6602ZM24.5312 22C24.0755 22 23.8477 21.7559 23.8477 21.2676V8.72852C23.8477 8.24023 24.0755 7.99609 24.5312 7.99609H26.1133C26.5039 7.99609 26.6992 8.24023 26.6992 8.72852V19.5781H32.3926C32.8809 19.5781 33.125 19.7897 33.125 20.2129V21.3652C33.125 21.7884 32.8809 22 32.3926 22H24.5312ZM34.7559 22C34.2871 22 34.1341 21.7852 34.2969 21.3555L39.082 8.78711C39.2839 8.25977 39.5898 7.99609 40 7.99609H41.3672C41.7773 7.99609 42.0833 8.25977 42.2852 8.78711L47.0703 21.3555C47.2331 21.7852 47.0801 22 46.6113 22H45.0586C44.6289 22 44.3294 21.7754 44.1602 21.3262L43.1641 18.6992H38.2031L37.207 21.3262C37.0378 21.7754 36.7383 22 36.3086 22H34.7559ZM39.1113 16.2773H42.2559L41.0547 13.1719C40.9115 12.8073 40.8236 12.5436 40.791 12.3809C40.765 12.2116 40.7357 11.9642 40.7031 11.6387H40.6641C40.6315 11.9642 40.599 12.2116 40.5664 12.3809C40.5404 12.5436 40.4557 12.8073 40.3125 13.1719L39.1113 16.2773ZM49.4922 22C49.0365 22 48.8086 21.7559 48.8086 21.2676V8.72852C48.8086 8.24023 49.0365 7.99609 49.4922 7.99609H54.0137C56.0254 7.99609 57.4935 8.30859 58.418 8.93359C59.3424 9.55208 59.8047 10.5612 59.8047 11.9609C59.8047 13.0026 59.4303 13.8327 58.6816 14.4512C57.9329 15.0697 56.9824 15.4798 55.8301 15.6816V15.7012C56.4551 15.9355 56.9271 16.2611 57.2461 16.6777C57.5651 17.0944 57.8255 17.459 58.0273 17.7715L60.1758 21.1602C60.5339 21.7201 60.4102 22 59.8047 22H58.1055C57.7474 22 57.4544 21.8079 57.2266 21.4238L55.2539 18.1328C55.0391 17.7812 54.6452 17.3971 54.0723 16.9805C53.5059 16.5573 52.9427 16.3457 52.3828 16.3457H51.6602V21.2676C51.6602 21.7559 51.4323 22 50.9766 22H49.4922ZM51.6602 13.9238H53.4082C54.7103 13.9238 55.6348 13.7773 56.1816 13.4844C56.735 13.1849 57.0117 12.7129 57.0117 12.0684C57.0117 11.3652 56.7448 10.9095 56.2109 10.7012C55.6836 10.4863 54.9056 10.3789 53.877 10.3789H51.6602V13.9238Z" fill="#3A3E41"/>
</svg>
